# xmcd
#
# Track frame offsets:
#	150
#	8417
#	20510
#	29447
#	44295
#	58870
#	67887
#	89380
#	105817
#	115147
#
# Disc length: 1648 seconds
#
# Revision: 1
# Processed by: cddbd v1.5.2PL0 Copyright (c) Steve Scherf et al.
# Submitted via: audiograbber 1.83.01
#
DISCID=6f066e0a
DTITLE=Buddy Charleton - Playing Silk
DYEAR=1900
DGENRE=Steel Guitar
TTITLE0=Gizmo
TTITLE1=Kay Lee's Song
TTITLE2=Bud's Therapy
TTITLE3=Forever Ever
TTITLE4=Let's Say Goodbye Like We Said Hello
TTITLE5=Almost to Tulsa
TTITLE6=Somewhere Over the Rainbow
TTITLE7=You Are My Sunshine
TTITLE8=Waltz Across Texas
TTITLE9=Hitching A Ride
EXTD=A FIne Album From Earnest Tubbs Steel Player
EXTT0=
EXTT1=
EXTT2=
EXTT3=
EXTT4=
EXTT5=
EXTT6=
EXTT7=
EXTT8=
EXTT9=
PLAYORDER=
